<?xml version="1.0" encoding="iso-8859-1"?>
<!-- Generator: Adobe Illustrator 19.0.0, SVG Export Plug-In . SVG Version: 6.00 Build 0)  -->
<svg version="1.1" id="Layer_1" xmlns="http://www.w3.org/2000/svg" xmlns:xlink="http://www.w3.org/1999/xlink" x="0px" y="0px"
	 viewBox="0 0 512 512" style="enable-background:new 0 0 512 512;" xml:space="preserve">
<rect x="10.199" y="256" style="fill:#FFCA12;" width="245.801" height="245.801"/>
<rect x="256" y="256" style="fill:#6ED3FF;" width="245.801" height="245.801"/>
<rect x="256" y="10.199" style="fill:#FFCA12;" width="245.801" height="245.801"/>
<rect x="10.199" y="10.199" style="fill:#6ED3FF;" width="245.801" height="245.801"/>
<path d="M10.199,0C4.567,0,0,4.567,0,10.199v491.602C0,507.433,4.567,512,10.199,512h491.602c5.632,0,10.199-4.567,10.199-10.199
	V10.199C512,4.567,507.433,0,501.801,0H10.199z M491.602,245.801H266.199V20.398h225.402V245.801z M20.398,20.398h225.402v225.402
	H20.398V20.398z M20.398,266.199h225.402v225.402H20.398V266.199z M491.602,491.602H266.199V266.199h225.402V491.602z"/>
<path d="M465.084,479.363c5.632,0,10.199-4.567,10.199-10.199V349.718c0-5.632-4.567-10.199-10.199-10.199
	s-10.199,4.567-10.199,10.199v119.445C454.884,474.795,459.452,479.363,465.084,479.363z"/>
<path d="M465.084,325.96c5.632,0,10.199-4.567,10.199-10.199v-1.626c0-5.632-4.567-10.199-10.199-10.199
	s-10.199,4.567-10.199,10.199v1.626C454.884,321.393,459.452,325.96,465.084,325.96z"/>
<g>
</g>
<g>
</g>
<g>
</g>
<g>
</g>
<g>
</g>
<g>
</g>
<g>
</g>
<g>
</g>
<g>
</g>
<g>
</g>
<g>
</g>
<g>
</g>
<g>
</g>
<g>
</g>
<g>
</g>
</svg>
