<?xml version="1.0" encoding="iso-8859-1"?>
<!-- Generator: Adobe Illustrator 19.0.0, SVG Export Plug-In . SVG Version: 6.00 Build 0)  -->
<svg version="1.1" id="Layer_1" xmlns="http://www.w3.org/2000/svg" xmlns:xlink="http://www.w3.org/1999/xlink" x="0px" y="0px"
	 viewBox="0 0 315.097 315.097" style="enable-background:new 0 0 315.097 315.097;" xml:space="preserve">
<g>
	<g>
		<path style="fill:#4EFFBB;" d="M170.798,30.668c-53.095,0-96.33,43.197-96.33,96.33c0,29.082,13.022,55.204,33.463,72.888v107.08
			c0,3.165,1.864,6.044,4.747,7.382c2.92,1.338,6.288,0.852,8.679-1.216l51.309-44.291l47.374,44.09
			c1.542,1.419,3.528,2.149,5.555,2.149c1.056,0,2.19-0.204,3.205-0.689c2.961-1.256,4.866-4.177,4.866-7.423V199.885
			c20.482-17.684,33.463-43.805,33.463-72.888C267.128,73.865,223.931,30.668,170.798,30.668z"/>
		<g>
			<g id="XMLID_19_">
				<g>
					<g>
						<path style="fill:#222051;" d="M144.301,21.293c41.411,0,75.037,33.666,75.037,75.037s-33.625,75.037-75.037,75.037
							c-41.371,0-75.037-33.666-75.037-75.037S102.93,21.293,144.301,21.293z M203.114,96.33c0-32.447-26.366-58.813-58.813-58.813
							c-32.407,0-58.813,26.366-58.813,58.813c0,32.407,26.403,58.813,58.813,58.813C176.748,155.143,203.114,128.74,203.114,96.33z
							"/>
					</g>
					<g>
						<path style="fill:#222051;" d="M144.301,176.437c44.169,0,80.106-35.938,80.106-80.106s-35.938-80.106-80.106-80.106
							S64.194,52.161,64.194,96.33S100.129,176.437,144.301,176.437z M144.301,192.66c-16.913,0-32.814-4.421-46.644-12.088v77.998
							l43.398-37.439c3.124-2.716,7.789-2.635,10.828,0.204l39.058,36.342v-77.102C177.115,188.239,161.214,192.66,144.301,192.66z
							 M240.631,96.33c0,29.082-12.981,55.204-33.463,72.888v107.08c0,3.246-1.905,6.166-4.866,7.423
							c-1.015,0.486-2.149,0.689-3.205,0.689c-2.027,0-4.017-0.73-5.558-2.149l-47.374-44.09l-51.309,44.291
							c-2.394,2.068-5.759,2.557-8.679,1.216c-2.879-1.338-4.747-4.217-4.747-7.382V169.218
							c-20.441-17.684-33.463-43.805-33.463-72.888C47.971,43.197,91.206,0,144.301,0C197.434,0,240.631,43.197,240.631,96.33z"/>
					</g>
					<g>
						<path style="fill:#302C58;" d="M144.301,192.66c16.913,0,32.814-4.421,46.644-12.088v77.105l-39.058-36.339
							c-3.042-2.839-7.708-2.92-10.828-0.204l-43.401,37.439v-77.998C111.487,188.239,127.388,192.66,144.301,192.66z"/>
					</g>
				</g>
			</g>
		</g>
		<g>
			<path style="fill:#222051;" d="M144.301,37.517c-32.407,0-58.813,26.363-58.813,58.813c0,32.407,26.403,58.813,58.813,58.813
				c32.447,0,58.813-26.403,58.813-58.813C203.114,63.883,176.748,37.517,144.301,37.517z M153.873,124.723h-14.074V76.171H127.63
				V65.424l26.244-2.149L153.873,124.723L153.873,124.723z"/>
		</g>
		<g>
			<g id="XMLID_9_">
				<g>
					<g>
						<path style="fill:#222051;" d="M144.301,21.293c41.411,0,75.037,33.666,75.037,75.037s-33.625,75.037-75.037,75.037
							c-41.371,0-75.037-33.666-75.037-75.037S102.93,21.293,144.301,21.293z M203.114,96.33c0-32.447-26.366-58.813-58.813-58.813
							c-32.407,0-58.813,26.366-58.813,58.813c0,32.407,26.403,58.813,58.813,58.813C176.748,155.143,203.114,128.74,203.114,96.33z
							"/>
					</g>
					<g>
						<path style="fill:#222051;" d="M144.301,176.437c44.169,0,80.106-35.938,80.106-80.106s-35.938-80.106-80.106-80.106
							S64.194,52.161,64.194,96.33S100.129,176.437,144.301,176.437z M144.301,192.66c-16.913,0-32.814-4.421-46.644-12.088v77.998
							l43.398-37.439c3.124-2.716,7.789-2.635,10.828,0.204l39.058,36.342v-77.102C177.115,188.239,161.214,192.66,144.301,192.66z
							 M240.631,96.33c0,29.082-12.981,55.204-33.463,72.888v107.08c0,3.246-1.905,6.166-4.866,7.423
							c-1.015,0.486-2.149,0.689-3.205,0.689c-2.027,0-4.017-0.73-5.558-2.149l-47.374-44.09l-51.309,44.291
							c-2.394,2.068-5.759,2.557-8.679,1.216c-2.879-1.338-4.747-4.217-4.747-7.382V169.218
							c-20.441-17.684-33.463-43.805-33.463-72.888C47.971,43.197,91.206,0,144.301,0C197.434,0,240.631,43.197,240.631,96.33z"/>
					</g>
					<g>
						<path style="fill:#302C58;" d="M144.301,192.66c16.913,0,32.814-4.421,46.644-12.088v77.105l-39.058-36.339
							c-3.042-2.839-7.708-2.92-10.828-0.204l-43.401,37.439v-77.998C111.487,188.239,127.388,192.66,144.301,192.66z"/>
					</g>
				</g>
			</g>
		</g>
		<g>
			<path style="fill:#222051;" d="M144.301,37.517c-32.407,0-58.813,26.363-58.813,58.813c0,32.407,26.403,58.813,58.813,58.813
				c32.447,0,58.813-26.403,58.813-58.813C203.114,63.883,176.748,37.517,144.301,37.517z M153.873,124.723h-14.074V76.171H127.63
				V65.424l26.244-2.149L153.873,124.723L153.873,124.723z"/>
		</g>
	</g>
</g>
<g>
</g>
<g>
</g>
<g>
</g>
<g>
</g>
<g>
</g>
<g>
</g>
<g>
</g>
<g>
</g>
<g>
</g>
<g>
</g>
<g>
</g>
<g>
</g>
<g>
</g>
<g>
</g>
<g>
</g>
</svg>
