<?xml version="1.0" encoding="iso-8859-1"?>
<!-- Generator: Adobe Illustrator 19.0.0, SVG Export Plug-In . SVG Version: 6.00 Build 0)  -->
<svg version="1.1" id="Layer_1" xmlns="http://www.w3.org/2000/svg" xmlns:xlink="http://www.w3.org/1999/xlink" x="0px" y="0px"
	 viewBox="0 0 512 512" style="enable-background:new 0 0 512 512;" xml:space="preserve">
<rect y="133.332" width="512" height="309.336"/>
<rect y="69.332" width="512" height="64.08"/>
<circle style="fill:#E21B1B;" cx="44.192" cy="101.38" r="8.928"/>
<g style="opacity:0.7;">
	<circle style="fill:#FFFFFF;" cx="70.968" cy="101.38" r="8.928"/>
</g>
<g>
	<circle style="fill:#666666;" cx="97.736" cy="101.38" r="8.928"/>
	<polygon style="fill:#666666;" points="443.52,117.06 155.96,117.06 175.08,85.716 462.656,85.716 	"/>
</g>
<g>
	<path style="fill:#FFFFFF;" d="M195.2,94.396l1.856,7.128c0.408,1.56,0.8,3.008,1.048,4.456h0.096c0.312-1.416,0.8-2.92,1.24-4.424
		l2.296-7.16h2.144l2.168,7.008c0.52,1.672,0.928,3.16,1.248,4.576h0.088c0.28-1.536,0.64-3.048,1.08-4.544l2.008-7.04h2.52
		l-4.52,14.016h-2.312l-2.144-6.688c-0.488-1.6-0.896-2.952-1.248-4.616h-0.056c-0.336,1.568-0.76,3.12-1.28,4.64l-2.264,6.664
		h-2.312l-4.224-14.016H195.2z"/>
	<path style="fill:#FFFFFF;" d="M216.856,94.396l1.856,7.128c0.408,1.56,0.8,3.008,1.048,4.456h0.088
		c0.32-1.416,0.8-2.92,1.248-4.424l2.28-7.16h2.144l2.176,7.008c0.52,1.672,0.928,3.16,1.24,4.576h0.096
		c0.272-1.536,0.632-3.056,1.08-4.544l2.008-7.04h2.52l-4.52,14.016h-2.328l-2.144-6.688c-0.496-1.512-0.912-3.056-1.24-4.616
		h-0.064c-0.328,1.568-0.752,3.12-1.272,4.64l-2.264,6.664h-2.328l-4.232-14.016H216.856z"/>
	<path style="fill:#FFFFFF;" d="M238.488,94.396l1.856,7.128c0.408,1.56,0.8,3.008,1.048,4.456h0.088
		c0.32-1.416,0.8-2.92,1.248-4.424l2.28-7.16h2.144l2.176,7.008c0.52,1.672,0.928,3.16,1.24,4.576h0.096
		c0.272-1.536,0.632-3.056,1.08-4.544l2.008-7.04h2.52l-4.52,14.016h-2.328l-2.152-6.688c-0.496-1.512-0.912-3.056-1.24-4.616
		h-0.064c-0.328,1.568-0.752,3.12-1.272,4.64l-2.264,6.664h-2.328l-4.232-14.016H238.488z"/>
</g>
<g>
	<polygon style="fill:#666666;" points="0,411.58 82.856,411.58 113.944,442.66 0,442.66 	"/>
	<polygon style="fill:#666666;" points="512,411.58 429.144,411.58 398.056,442.66 512,442.66 	"/>
</g>
<path style="fill:#E21B1B;" d="M424.448,325.028H87.552V206.276h336.896V325.028z M91.552,321.028h328.896V210.276H91.552V321.028z"
	/>
<g>
	<path style="fill:#FFFFFF;" d="M189.928,297.06h-12.992l-1.408-45.672L152.8,297.06h-13.28l-2.344-62.464h12.568l0.552,43.712
		l21.432-43.712h13.936l1.448,43.24l20.576-43.24h12.448L189.928,297.06z"/>
	<path style="fill:#FFFFFF;" d="M272.296,297.06h-12.992l-1.408-45.672l-22.76,45.672h-13.248l-2.344-62.464h12.568l0.552,43.712
		l21.432-43.712H268l1.448,43.24l20.576-43.24h12.448L272.296,297.06z"/>
	<path style="fill:#FFFFFF;" d="M354.664,297.06h-12.992l-1.408-45.672l-22.76,45.672h-13.248l-2.344-62.464h12.568l0.552,43.712
		l21.432-43.712H350.4l1.448,43.24l20.576-43.24h12.448L354.664,297.06z"/>
</g>
<g>
</g>
<g>
</g>
<g>
</g>
<g>
</g>
<g>
</g>
<g>
</g>
<g>
</g>
<g>
</g>
<g>
</g>
<g>
</g>
<g>
</g>
<g>
</g>
<g>
</g>
<g>
</g>
<g>
</g>
</svg>
